HIERARCHY
ROOT Pelvis
{
	OFFSET 0.000000 0.000000 0.000000
	CHANNELS 6 Xposition Yposition Zposition Xrotation Yrotation Zrotation
	JOINT LeftUpLeg_virtual
	{
		OFFSET 0.000000 0.000000 0.000000
		CHANNELS 3 Xrotation Yrotation Zrotation
		JOINT LeftUpLeg
		{
			OFFSET 18.735201 -5.666702 -4.541200
			CHANNELS 3 Xrotation Yrotation Zrotation
			JOINT LeftLeg
			{
				OFFSET -0.021200 -31.938179 0.493100
				CHANNELS 3 Xrotation Yrotation Zrotation
				JOINT LeftFoot
				{
					OFFSET 0.021200 -31.938179 -4.336299
					CHANNELS 3 Xrotation Yrotation Zrotation
					JOINT LeftToeBase
					{
						OFFSET 0.943001 -26.722000 15.023500
						CHANNELS 3 Xrotation Yrotation Zrotation
						End Site
						{
							OFFSET 0 0 0
						}
					}
				}
			}
		}
	}
	JOINT RightUpLeg_virtual
	{
		OFFSET 0.000000 0.000000 0.000000
		CHANNELS 3 Xrotation Yrotation Zrotation
		JOINT RightUpLeg
		{
			OFFSET -18.735201 -5.666702 -4.541200
			CHANNELS 3 Xrotation Yrotation Zrotation
			JOINT RightLeg
			{
				OFFSET 0.018946 -31.938133 0.493100
				CHANNELS 3 Xrotation Yrotation Zrotation
				JOINT RightFoot
				{
					OFFSET -0.018946 -31.938126 -4.336299
					CHANNELS 3 Xrotation Yrotation Zrotation
					JOINT RightToeBase
					{
						OFFSET -0.943001 -26.722004 15.023500
						CHANNELS 3 Xrotation Yrotation Zrotation
						End Site
						{
							OFFSET 0 0 0
						}
					}
				}
			}
		}
	}
	JOINT Hips_virtual
	{
		OFFSET 0.000000 0.000000 0.000000
		CHANNELS 3 Xrotation Yrotation Zrotation
		JOINT Hips
		{
			OFFSET -0.000000 -0.000000 -0.000000
			CHANNELS 3 Xrotation Yrotation Zrotation
			JOINT Spine
			{
				OFFSET 0.000000 10.199997 -0.299500
				CHANNELS 3 Xrotation Yrotation Zrotation
				JOINT Spine1
				{
					OFFSET 0.000000 11.900002 -1.516600
					CHANNELS 3 Xrotation Yrotation Zrotation
					JOINT Spine2
					{
						OFFSET 0.000000 13.600006 -2.842500
						CHANNELS 3 Xrotation Yrotation Zrotation
						JOINT Neck_virtual
						{
							OFFSET 0.000000 0.000000 0.000000
							CHANNELS 3 Xrotation Yrotation Zrotation
							JOINT Neck
							{
								OFFSET 0.000000 9.624100 -2.890100
								CHANNELS 3 Xrotation Yrotation Zrotation
								JOINT Head
								{
									OFFSET 0.000000 14.068802 -1.351900
									CHANNELS 3 Xrotation Yrotation Zrotation
									End Site
									{
										OFFSET 0 0 0
									}
								}
							}
						}
						JOINT LeftShoulder_virtual
						{
							OFFSET 0.000000 0.000000 0.000000
							CHANNELS 3 Xrotation Yrotation Zrotation
							JOINT LeftShoulder
							{
								OFFSET 15.263000 10.923401 -0.547700
								CHANNELS 3 Xrotation Yrotation Zrotation
								JOINT LeftArm
								{
									OFFSET 25.438599 -2.830597 -13.032500
									CHANNELS 3 Xrotation Yrotation Zrotation
									JOINT LeftForeArm
									{
										OFFSET 29.960503 0.000000 0.000000
										CHANNELS 3 Xrotation Yrotation Zrotation
										JOINT LeftHand
										{
											OFFSET 27.849251 0.000000 0.000000
											CHANNELS 3 Xrotation Yrotation Zrotation
											End Site
											{
												OFFSET 0 0 0
											}
										}
									}
								}
							}
						}
						JOINT RightShoulder_virtual
						{
							OFFSET 0.000000 0.000000 0.000000
							CHANNELS 3 Xrotation Yrotation Zrotation
							JOINT RightShoulder
							{
								OFFSET -15.263000 10.923401 -0.547700
								CHANNELS 3 Xrotation Yrotation Zrotation
								JOINT RightArm
								{
									OFFSET -25.438599 -2.830597 -13.032500
									CHANNELS 3 Xrotation Yrotation Zrotation
									JOINT RightForeArm
									{
										OFFSET -29.960503 0.000000 0.000000
										CHANNELS 3 Xrotation Yrotation Zrotation
										JOINT RightHand
										{
											OFFSET -27.849251 0.000000 0.000000
											CHANNELS 3 Xrotation Yrotation Zrotation
											End Site
											{
												OFFSET 0 0 0
											}
										}
									}
								}
							}
						}
					}
				}
			}
		}
	}
}
MOTION
Frames: 7
Frame Time: 0.03333333
0.484612 18.703291 4.168904 0.000000 0.000000 0.000000 -46.299667 -1.571471 -11.605435 -91.515949 5.983183 10.823893 42.744048 2.569173 -1.827793 -6.298158 3.371155 -6.482094 0.000000 0.000000 0.000000 -35.881248 6.113621 9.615741 -73.909190 -0.503813 -7.525604 35.749077 -5.202509 10.159952 -13.239126 -13.850317 23.788485 0.000000 0.000000 0.000000 -26.277819 -17.811868 0.413960 -73.064036 17.931313 29.877235 0.696842 0.966486 -1.495005 -2.131087 0.978731 -0.311766 0.000000 0.000000 0.000000 3.427344 -0.284107 -0.205777 -1.266553 0.607921 -0.004847 0.000000 0.000000 0.000000 -0.730170 -1.030275 1.468460 -1.202326 -5.875299 0.178377 -12.088961 -20.198316 -68.322013 -90.238520 -88.910697 -96.291775 0.000000 0.000000 0.000000 -0.163204 1.826004 -1.280799 -1.766332 3.332122 6.767565 3.959365 14.007249 58.117205 179.487386 78.048312 -172.481196 0.000000 0.000000 0.000000 
0.483724 18.705828 4.172921 0.000000 0.000000 0.000000 -46.298857 -1.561400 -11.604274 -91.516701 5.986190 10.824121 42.752702 2.560314 -1.825132 -6.291029 3.360483 -6.483872 0.000000 0.000000 0.000000 -35.877556 6.121772 9.620101 -73.904607 -0.503484 -7.523362 35.735495 -5.197699 10.162286 -13.249846 -13.847808 23.794678 0.000000 0.000000 0.000000 -26.274268 -17.804140 0.416081 -73.071741 17.930725 29.882706 0.693023 0.963939 -1.495404 -2.132023 0.976998 -0.311798 0.000000 0.000000 0.000000 3.429289 -0.288515 -0.203586 -1.265838 0.604332 -0.003209 0.000000 0.000000 0.000000 -0.734070 -1.030671 1.467565 -1.206821 -5.875149 0.171406 -12.101838 -20.180779 -68.315866 -89.874990 -88.906571 -95.916872 0.000000 0.000000 0.000000 -0.161023 1.826060 -1.280761 -1.766413 3.336881 6.765644 3.942357 14.004710 58.128257 179.521564 78.045621 -172.514910 0.000000 0.000000 0.000000 
0.483406 18.708355 4.177577 0.000000 0.000000 0.000000 -46.297758 -1.551057 -11.603877 -91.517227 5.989737 10.823793 42.761615 2.551180 -1.822252 -6.283645 3.349412 -6.485490 0.000000 0.000000 0.000000 -35.873615 6.129036 9.623759 -73.899874 -0.503173 -7.521483 35.721801 -5.193073 10.164661 -13.260570 -13.845500 23.800846 0.000000 0.000000 0.000000 -26.270716 -17.796145 0.418291 -73.079083 17.930876 29.888641 0.689678 0.962005 -1.495211 -2.132741 0.975587 -0.311487 0.000000 0.000000 0.000000 3.431289 -0.292481 -0.200947 -1.265023 0.601056 -0.001395 0.000000 0.000000 0.000000 -0.737795 -1.030791 1.466632 -1.211220 -5.874305 0.164166 -12.114286 -20.163041 -68.308162 -89.206287 -88.903532 -95.237139 0.000000 0.000000 0.000000 -0.158734 1.826143 -1.280403 -1.766242 3.341387 6.764942 3.926777 14.002833 58.139144 179.553201 78.041933 -172.545919 0.000000 0.000000 0.000000 
0.483545 18.710880 4.182881 0.000000 0.000000 0.000000 -46.296405 -1.540430 -11.604170 -91.517548 5.993788 10.822953 42.771024 2.541821 -1.819083 -6.275794 3.337950 -6.486799 0.000000 0.000000 0.000000 -35.869363 6.135565 9.626738 -73.894901 -0.502848 -7.519965 35.707959 -5.188569 10.167077 -13.271330 -13.843333 23.807014 0.000000 0.000000 0.000000 -26.267133 -17.787829 0.420607 -73.085975 17.931808 29.895017 0.686877 0.960664 -1.494542 -2.133202 0.974487 -0.310897 0.000000 0.000000 0.000000 3.433428 -0.296064 -0.197931 -1.264089 0.598053 0.000559 0.000000 0.000000 0.000000 -0.741209 -1.030650 1.465664 -1.215435 -5.872706 0.156646 -12.124977 -20.145653 -68.298675 -88.230751 -88.899796 -94.251379 0.000000 0.000000 0.000000 -0.156387 1.826233 -1.279732 -1.765910 3.345529 6.765445 3.912740 14.001755 58.149533 179.581765 78.037479 -172.573732 0.000000 0.000000 0.000000 
0.484027 18.713440 4.188816 0.000000 0.000000 0.000000 -46.294797 -1.529548 -11.605046 -91.517684 5.998276 10.821665 42.781163 2.532273 -1.815565 -6.267284 3.326098 -6.487678 0.000000 0.000000 0.000000 -35.864715 6.141518 9.629085 -73.889581 -0.502487 -7.518787 35.693964 -5.184135 10.169526 -13.282147 -13.841263 23.813214 0.000000 0.000000 0.000000 -26.263505 -17.779122 0.423034 -73.092327 17.933613 29.901728 0.684660 0.959877 -1.493542 -2.133394 0.973680 -0.310113 0.000000 0.000000 0.000000 3.435756 -0.299340 -0.194668 -1.263036 0.595276 0.002588 0.000000 0.000000 0.000000 -0.744215 -1.030269 1.464654 -1.219398 -5.870330 0.148813 -12.132947 -20.129099 -68.287302 -86.962542 -88.896954 -92.973689 0.000000 0.000000 0.000000 -0.154040 1.826300 -1.278789 -1.765502 3.349177 6.767022 3.900274 14.001510 58.159033 179.606709 78.033115 -172.597938 0.000000 0.000000 0.000000 
0.484745 18.716082 4.195333 0.000000 0.000000 0.000000 -46.293000 -1.518473 -11.606391 -91.517636 6.003113 10.820021 42.792228 2.522563 -1.811655 -6.257946 3.313852 -6.488039 0.000000 0.000000 0.000000 -35.859610 6.147040 9.630881 -73.883864 -0.502084 -7.517912 35.679802 -5.179739 10.171991 -13.293031 -13.839247 23.819439 0.000000 0.000000 0.000000 -26.259829 -17.769967 0.425556 -73.098003 17.936423 29.908592 0.683012 0.959589 -1.492359 -2.133332 0.973133 -0.309216 0.000000 0.000000 0.000000 3.438273 -0.302393 -0.191317 -1.261885 0.592673 0.004610 0.000000 0.000000 0.000000 -0.746773 -1.029677 1.463593 -1.223071 -5.867193 0.140644 -12.137695 -20.113710 -68.274147 -85.430818 -88.894291 -91.433728 0.000000 0.000000 0.000000 -0.151754 1.826315 -1.277636 -1.765093 3.352209 6.769442 3.889349 14.002001 58.167278 179.627691 78.029201 -172.618305 0.000000 0.000000 0.000000 
0.485611 18.718838 4.202344 0.000000 0.000000 0.000000 -46.291003 -1.507308 -11.608065 -91.517466 6.008182 10.818131 42.804386 2.512703 -1.807339 -6.247651 3.301215 -6.487843 0.000000 0.000000 0.000000 -35.854013 6.152268 9.632250 -73.877676 -0.501651 -7.517275 35.665475 -5.175350 10.174464 -13.303990 -13.837258 23.825682 0.000000 0.000000 0.000000 -26.256089 -17.760363 0.428147 -73.102791 17.940329 29.915351 0.681860 0.959722 -1.491104 -2.133069 0.972810 -0.308268 0.000000 0.000000 0.000000 3.440924 -0.305304 -0.188032 -1.260684 0.590195 0.006544 0.000000 0.000000 0.000000 -0.748893 -1.028905 1.462477 -1.226447 -5.863340 0.132167 -12.139258 -20.099701 -68.259456 -83.689939 -88.890759 -89.685370 0.000000 0.000000 0.000000 -0.149591 1.826250 -1.276348 -1.764749 3.354524 6.772424 3.879887 14.003016 58.173998 179.644535 78.026346 -172.634807 0.000000 0.000000 0.000000 
